

<svg width="22" height="15" viewBox="0 0 22 15" fill="none" xmlns="http://www.w3.org/2000/svg">
<path d="M17.0625 6C17.0625 6.14918 17.0032 6.29226 16.8977 6.39775C16.7923 6.50324 16.6492 6.5625 16.5 6.5625H9C8.85082 6.5625 8.70774 6.50324 8.60225 6.39775C8.49676 6.29226 8.4375 6.14918 8.4375 6C8.4375 5.85082 8.49676 5.70774 8.60225 5.60225C8.70774 5.49676 8.85082 5.4375 9 5.4375H16.5C16.6492 5.4375 16.7923 5.49676 16.8977 5.60225C17.0032 5.70774 17.0625 5.85082 17.0625 6ZM16.5 8.4375H9C8.85082 8.4375 8.70774 8.49676 8.60225 8.60225C8.49676 8.70774 8.4375 8.85082 8.4375 9C8.4375 9.14918 8.49676 9.29226 8.60225 9.39775C8.70774 9.50324 8.85082 9.5625 9 9.5625H16.5C16.6492 9.5625 16.7923 9.50324 16.8977 9.39775C17.0032 9.29226 17.0625 9.14918 17.0625 9C17.0625 8.85082 17.0032 8.70774 16.8977 8.60225C16.7923 8.49676 16.6492 8.4375 16.5 8.4375ZM21.5625 1.5V12.75C21.5625 13.297 21.3452 13.8216 20.9584 14.2084C20.5716 14.5952 20.047 14.8125 19.5 14.8125H3C2.45445 14.8125 1.93112 14.5964 1.54457 14.2114C1.15802 13.8264 0.939732 13.304 0.9375 12.7584V3.75C0.9375 3.60082 0.996763 3.45774 1.10225 3.35225C1.20774 3.24676 1.35082 3.1875 1.5 3.1875C1.64918 3.1875 1.79226 3.24676 1.89775 3.35225C2.00324 3.45774 2.0625 3.60082 2.0625 3.75V12.75C2.0625 12.9986 2.16127 13.2371 2.33709 13.4129C2.5129 13.5887 2.75136 13.6875 3 13.6875C3.24864 13.6875 3.4871 13.5887 3.66291 13.4129C3.83873 13.2371 3.9375 12.9986 3.9375 12.75V1.5C3.9375 1.1519 4.07578 0.818064 4.32192 0.571922C4.56806 0.325781 4.9019 0.1875 5.25 0.1875H20.25C20.5981 0.1875 20.9319 0.325781 21.1781 0.571922C21.4242 0.818064 21.5625 1.1519 21.5625 1.5ZM20.4375 1.5C20.4375 1.45027 20.4177 1.40258 20.3826 1.36742C20.3474 1.33225 20.2997 1.3125 20.25 1.3125H5.25C5.20027 1.3125 5.15258 1.33225 5.11742 1.36742C5.08225 1.40258 5.0625 1.45027 5.0625 1.5V12.75C5.0629 13.076 4.98544 13.3974 4.83656 13.6875H19.5C19.7486 13.6875 19.9871 13.5887 20.1629 13.4129C20.3387 13.2371 20.4375 12.9986 20.4375 12.75V1.5Z" fill="white"/>
</svg>
